<svg version="1.2" xmlns="http://www.w3.org/2000/svg" viewBox="0 0 36 36" width="36" height="36">
	<title>路径 1</title>
	<style>
		.s0 { fill: #ffbe0a } 
		.s1 { fill: #34332e } 
	</style>
	<path id="路径 1" class="s0" d="m24.3 15.6c4.3 0 7.9 3.5 7.9 7.9 0 4.3-3.6 7.9-7.9 7.9-4.4 0-8-3.6-8-7.9 0-4.4 3.6-7.9 8-7.9z"/>
	<path id="路径 2" fill-rule="evenodd" class="s1" d="m3.6 36c-1 0-2-0.4-2.7-1.2-0.9-0.9-1.2-2.1-1-3.3l1.1-5.6c0.2-1.2 0.2-2.4-0.1-3.5q-0.6-2.3-0.5-4.7c0-4.6 1.8-9 5.1-12.3 3.3-3.4 7.6-5.3 12.3-5.4 5-0.1 9.8 1.9 13.3 5.5 3.5 3.6 5.3 8.5 5 13.5-0.5 9.1-7.8 16.3-16.8 16.8q-2.7 0.1-5.3-0.5-1.6-0.4-3.1-0.2l-6.8 0.9q-0.2 0-0.5 0zm14.2-32.8c-7.8 0.2-14.2 6.7-14.3 14.5q0 2 0.5 3.9c0.4 1.5 0.4 3.2 0.1 4.9l-1.1 5.6c0 0.3 0.1 0.5 0.2 0.5 0.1 0.1 0.2 0.3 0.5 0.2l6.7-0.8q2.2-0.3 4.3 0.2 2.2 0.6 4.4 0.4c7.4-0.4 13.4-6.3 13.9-13.8 0.2-4.2-1.2-8.1-4.1-11.1-2.9-3-6.9-4.6-11.1-4.5z"/>
	<path id="路径 3" class="s1" d="m24.3 15.7h-12.5c-0.9 0-1.6-0.7-1.6-1.6 0-0.8 0.7-1.6 1.6-1.6h12.5c0.8 0 1.5 0.8 1.5 1.6 0 0.9-0.7 1.6-1.5 1.6zm-4.1 7.7h-8.4c-0.9 0-1.6-0.7-1.6-1.6 0-0.8 0.7-1.5 1.6-1.5h8.4c0.8 0 1.5 0.7 1.5 1.5 0 0.9-0.7 1.6-1.5 1.6z"/>
</svg>